<?xml version="1.0" encoding="utf-8"?>
<!-- Generator: Adobe Illustrator 22.0.1, SVG Export Plug-In . SVG Version: 6.00 Build 0)  -->
<svg version="1.1" id="Layer_1" xmlns="http://www.w3.org/2000/svg" xmlns:xlink="http://www.w3.org/1999/xlink" x="0px" y="0px"
	 viewBox="0 0 500 500" style="enable-background:new 0 0 500 500;" xml:space="preserve">
<style type="text/css">
	.st0{fill:none;stroke:#231F20;stroke-width:10;stroke-miterlimit:10;}
	.st1{fill:#231F20;}
</style>
<path class="st0" d="M467.9,345.1c12.9-29.3,20.1-61.7,20.1-95.7C488,118,381.6,11.6,250.3,11.6c-61,0-116.6,23-158.7,60.7"/>
<path class="st0" d="M27.6,165.9c-1,2.7-1.9,5.3-2.8,8c-7.9,23.7-12.2,49-12.2,75.3C12.6,380.6,119,487,250.3,487
	c61,0,116.6-23,158.7-60.8"/>
<g>
	<path class="st1" d="M223.8,50.8l14.7,30.4l-5.2,49.9L220,147.1h-50.1l-16.4-20.9l7.3-59.1l28.9-21.7L223.8,50.8z M191.1,127.1
		l13.5-1.6l-1-64.8l-13.4,3.6L191.1,127.1z"/>
	<path class="st1" d="M357.5,80.6l-13.3-1.3l5.4,61.1L315,144l-0.3-0.4l-32.8-41.8v0.9c-0.2,3.7-0.3,7.2-0.1,10.5
		c0.1,3.3,0.4,6.1,0.6,8.5c0.3,2.4,0.7,5.1,1.2,7.9l0.2,0.9l-41.1,14.7l-0.2-1.2c-1.3-10-2.1-19.5-2.2-28.5
		c-0.1-9,0.4-17.6,1.6-25.8c2-13.2,5.6-24.9,10.8-35c2.4-4.5,4.8-8.3,7.1-11.4c2.3-3.1,4.3-5.5,6.1-7.2c1.9-1.9,3.5-3.4,4.7-4.3
		c1.2-0.9,1.8-1.3,1.9-1.3L273,30l29.5,26.4l-0.8,0.8c-4,3.4-7.3,7.3-9.9,11.5c-2.5,4.2-4.6,8.5-6.1,12.8l17.2,21.5l-0.7-32.2
		l6.5-18.6L359,68.1L357.5,80.6z"/>
	<path class="st1" d="M239.6,278.7l-20.7-9.7l-8.5-1.3l1.2-37.4l-3.7,5.2h-11.8l-12.4-14.3c-0.4,4.4-0.4,8.7,0,12.8
		c0.4,4.1,0.9,7.9,1.7,11.3c0.8,3.7,1.8,7.1,2.8,10.2c1,3.1,2,5.8,3,8c0.9,2.2,2,4.7,3.3,7.3l0.4,0.8l-35.5,25.5l-0.4-1.1
		c-8.2-18.3-13.3-35.6-15.5-52.1c-1.7-13.2-1.5-25.3,0.8-36.5c1-5,2.2-9.3,3.5-13c1.4-3.6,2.7-6.5,3.9-8.7c1.3-2.4,2.4-4.2,3.3-5.3
		c0.9-1.2,1.4-1.8,1.5-1.9l0.6-0.6l35.7,17.3l-0.7,0.9c-1.9,2.9-3.5,6-4.7,9.1l12.9,7.6l8.5-13.7l32.9-6.3l16.6,43.5l-2.6,17.4
		l11.3-3.7l12,19.4L239.6,278.7z"/>
	<path class="st1" d="M353.5,195.9l-7.1,3.5l-2.7,28.9l-12.7,9.8v47.2l-36.6-5.7l-0.6-40.7l-10.7-3.7l-25.8-29.4l-8.6-2.4l-0.8-7.1
		l44.3-7.4l14.3,34.6h1.7l1.7-35.5l38-2.1L353.5,195.9z"/>
	<path class="st1" d="M215.5,400l-9.7,10.4l-39.7,2.8l-14.7-24.9l-4.8,12.6c0.1,0.4,0.3,0.7,0.5,0.9c0.2,0.2,0.4,0.4,0.5,0.6
		c0.1,0.2,0.3,0.4,0.3,0.4l0.6,0.8L116.3,433l-0.7-1c-5.2-8.6-9.5-17.1-13.1-25.4c-3.6-8.3-6.4-16.5-8.4-24.5
		c-1.6-6.4-2.8-12.7-3.3-18.8c-0.6-6.1-0.7-11.9-0.3-17.6c0.4-5.2,1-9.6,2-13.3c1-3.7,1.9-6.7,2.8-9c1-2.5,1.9-4.5,2.6-5.7
		s1.1-1.9,1.2-2l0.4-0.6l37.5,12.8l-0.4,1c-2.2,4.4-3.7,8.9-4.4,13.4c-0.8,4.5-1.1,8.9-0.9,13.2c0.2,4.3,0.7,8.4,1.6,12.4
		c0.9,3.9,1.9,7.5,3,10.7c0.1,0.2,0.1,0.5,0.2,0.7c0.1,0.3,0.1,0.5,0.2,0.7l9.2-16.9l13.4,0.6l7.5,11.2l-4.7-40.9l41.9-14.9
		L215.5,400z"/>
	<path class="st1" d="M310.9,392.9l7.3,27.2l-37.3-2.8l-4.2-38.8l-22.4,1.9c0,2.8,0.1,5.3,0.3,7.5s0.5,4.2,0.7,6
		c0.3,1.9,0.6,3.7,0.9,5.3l0.1,0.9l-41.1,14.7l-0.1-1.2c-2.8-19.9-3-38-0.6-54.3c1-6.6,2.4-12.8,4.2-18.6c1.8-5.8,4-11.3,6.6-16.3
		c2.3-4.6,4.7-8.4,7-11.5c2.4-3.1,4.4-5.5,6.1-7.2c1.9-1.9,3.4-3.4,4.5-4.3c1.2-0.9,1.8-1.3,1.9-1.3l0.7-0.4l29.7,26.4l-0.9,0.8
		c-0.9,0.8-1.3,1.4-1.2,1.7s0.4,0.7,0.7,1c0.4,0.3,0.7,0.7,1,1.1c0.3,0.4,0.1,1.1-0.5,2l7.1,0.6l15.7,23.8L310.9,392.9z M264.9,351
		l-6.3-0.3c-1,3.1-1.9,6.1-2.5,9.1c-0.6,3-1,5.9-1.3,8.8l17.3-4.5L264.9,351z"/>
	<path class="st1" d="M408.5,330.7l-7.1,3.5l-2.7,28.9l-12.7,9.8V420l-36.6-5.7l-0.6-40.7l-10.7-3.7l-25.8-29.4l-8.6-2.4l-0.8-7.1
		l44.3-7.4l14.3,34.6h1.7l1.7-35.5l38-2.1L408.5,330.7z"/>
</g>
</svg>
